<svg xmlns="http://www.w3.org/2000/svg" width="15.661" height="15.661" viewBox="0 0 15.661 15.661"><g transform="translate(-113.17 -43.17)"><g transform="translate(103.17 -919.193)"><path d="M17.83,962.362a7.831,7.831,0,1,0,7.83,7.831A7.825,7.825,0,0,0,17.83,962.362Zm-2.985,4.5h.043a.391.391,0,0,1,.281.116l2.661,2.655,2.655-2.655a.394.394,0,1,1,.557.557L18.381,970.2l2.661,2.655a.394.394,0,1,1-.557.557l-2.655-2.661-2.661,2.661a.394.394,0,0,1-.557-.557l2.655-2.655-2.655-2.661a.392.392,0,0,1,.232-.673Z" transform="translate(0 0)" fill="#454343" fill-rule="evenodd"/></g></g></svg>