<svg xmlns="http://www.w3.org/2000/svg" width="76.908" height="25.736" viewBox="0 0 76.908 25.736"><g transform="translate(-1.833 -8.422)"><path d="M78.295,26.949c-.158,1.644-.5,1.861-2.064,2.087L68.9,30.051a2.167,2.167,0,0,1-.219.019,5.312,5.312,0,0,0,.211-1.477,5.165,5.165,0,1,0-9.962,1.918l-36.457-1.15a5.088,5.088,0,0,0,.057-.768,5.165,5.165,0,0,0-10.329,0c0,.152.008.3.019.447L5.53,28.829a2.369,2.369,0,0,1-1.73-.808,5.137,5.137,0,0,1-.23-6.974,2.39,2.39,0,0,0,.513-1.275l.4-4.364a.957.957,0,0,1,.8-.859l6.742-1.087c.205-.082.511-.2.884-.344A57.274,57.274,0,0,1,35.191,8.832C45.942,9.051,57.655,14.6,59.32,15.62a2.438,2.438,0,0,0,1.129.346C77.808,16.949,78.622,23.558,78.295,26.949Z" transform="translate(0)" fill="none" stroke="#000" stroke-miterlimit="10" stroke-width="0.8"/><path d="M42.234,21.67a5.313,5.313,0,0,1-.211,1.477h0a5.166,5.166,0,1,1,.215-1.477Z" transform="translate(26.661 6.924)" fill="none" stroke="#000" stroke-miterlimit="10" stroke-width="0.8"/><path d="M17.844,21.67a5.088,5.088,0,0,1-.057.768,5.165,5.165,0,0,1-10.253-.321c-.011-.148-.019-.295-.019-.447a5.165,5.165,0,0,1,10.329,0Z" transform="translate(4.689 6.924)" fill="none" stroke="#000" stroke-miterlimit="10" stroke-width="0.8"/><path d="M10.2,10.5a4.074,4.074,0,0,0,3.167,2.906c4.349,1.268,31.765,2.416,32.8,2.446,1.07.03,4.539-.279,5.092-1.407" transform="translate(7.108 1.512)" fill="none" stroke="#000" stroke-miterlimit="10" stroke-width="0.8"/></g></svg>