<svg xmlns="http://www.w3.org/2000/svg" width="13.591" height="11.917" viewBox="0 0 13.591 11.917"><g transform="translate(29.491 -20.1) rotate(90)"><g transform="translate(28.47 15.9)"><path d="M65.647,19.905a1.776,1.776,0,0,0-1.275-1.694V16.4a.5.5,0,0,0-1,0v1.813A1.757,1.757,0,0,0,62.1,19.905a1.782,1.782,0,0,0,1.275,1.714v7.353a.5.5,0,1,0,1,0V21.619A1.782,1.782,0,0,0,65.647,19.905Zm-1,.02a.777.777,0,1,1-.777-.777A.778.778,0,0,1,64.651,19.925Z" transform="translate(-62.1 -15.9)" fill="#233342"/></g><g transform="translate(24.484 15.92)"><path d="M45.647,25.964a1.776,1.776,0,0,0-1.275-1.694V16.5a.5.5,0,1,0-1,0V24.29A1.757,1.757,0,0,0,42.1,25.984,1.782,1.782,0,0,0,43.375,27.7v1.375a.5.5,0,0,0,1,0V27.7A1.806,1.806,0,0,0,45.647,25.964Zm-1,.02a.777.777,0,1,1-.777-.777A.778.778,0,0,1,44.651,25.984Z" transform="translate(-42.1 -16)" fill="#233342"/></g><g transform="translate(20.1 15.92)"><path d="M23.647,22.377a1.776,1.776,0,0,0-1.275-1.694V16.5a.5.5,0,0,0-1,0v4.2A1.757,1.757,0,0,0,20.1,22.4a1.782,1.782,0,0,0,1.275,1.714v4.962a.5.5,0,0,0,1,0V24.091A1.782,1.782,0,0,0,23.647,22.377Zm-1,.02a.777.777,0,1,1-.777-.777A.778.778,0,0,1,22.651,22.4Z" transform="translate(-20.1 -16)" fill="#233342"/></g></g></svg>