<svg xmlns="http://www.w3.org/2000/svg" width="25.318" height="25.318" viewBox="0 0 25.318 25.318"><path d="M6.329,0V6.329H0V0Z" fill="#1598f6"/><path d="M43.829,0V6.294H37.5V0Z" transform="translate(-28.006)" fill="#1598f6"/><path d="M81.329,0V6.294H75V0Z" transform="translate(-56.012)" fill="#1598f6"/><path d="M0,37.5H6.294v6.329H0Z" transform="translate(0 -28.006)" fill="#1598f6"/><path d="M0,75H6.329v6.329H0Z" transform="translate(0 -56.012)" fill="#1598f6"/><path d="M37.5,81.434V75.14h6.329v6.294Z" transform="translate(-28.006 -56.116)" fill="#1598f6"/><path d="M75,81.434V75.14h6.329v6.294Z" transform="translate(-56.012 -56.116)" fill="#1598f6"/><path d="M37.64,37.6h6.266v6.264H37.64Z" transform="translate(-28.11 -28.08)" fill="#1598f6"/><path d="M81.434,37.65v6.264H75.17V37.65Z" transform="translate(-56.139 -28.118)" fill="#1598f6"/></svg>