<svg xmlns="http://www.w3.org/2000/svg" width="19.664" height="19.664" viewBox="0 0 19.664 19.664"><path d="M15.769,10.446a.156.156,0,0,0-.184,0L9.923,14.994a.152.152,0,0,0-.053.115v8.378a.074.074,0,0,0,.074.07h3.933a.074.074,0,0,0,.074-.07v-5.1a.074.074,0,0,1,.074-.074h3.351a.074.074,0,0,1,.07.074v5.1a.074.074,0,0,0,.074.07h3.933a.074.074,0,0,0,.074-.07V15.108a.147.147,0,0,0-.053-.115Z" transform="translate(-5.827 -6.149)" fill="#f5f6f8"/><path d="M20.5,11.2,13.611,5.682a.791.791,0,0,0-.5-.172.819.819,0,0,0-.5.172l-3,2.458V6.583a.074.074,0,0,0-.074-.053H7.36a.074.074,0,0,0-.074.074V9.963L5.721,11.221a.51.51,0,1,0,.639.795l6.706-5.387a.061.061,0,0,1,.049,0,.078.078,0,0,1,.045,0l6.7,5.367a.517.517,0,0,0,.836-.426A.545.545,0,0,0,20.5,11.2Z" transform="translate(-3.263 -3.253)" fill="#f5f6f8"/><rect width="19.664" height="19.664" fill="none"/></svg>