<svg xmlns="http://www.w3.org/2000/svg" width="15.469" height="13.143" viewBox="0 0 15.469 13.143"><g transform="translate(-34.572 -36.95)"><g transform="translate(34.572 36.95)"><path d="M37.44,40a2.448,2.448,0,1,0,2.44,2.456A2.451,2.451,0,0,0,37.44,40Z" transform="translate(-29.713 -35.071)" fill="#ebebeb"/><path d="M16.05,11.7H13.659l-.732-1.464a.983.983,0,0,0-.878-.537H8.4a.983.983,0,0,0-.878.537L6.794,11.7H4.4a1.892,1.892,0,0,0-1.9,1.887V20.94a1.906,1.906,0,0,0,1.9,1.9H16.066a1.906,1.906,0,0,0,1.9-1.9V13.588A1.916,1.916,0,0,0,16.05,11.7ZM5.77,14.5a.472.472,0,0,1-.472.472H4.615a.472.472,0,0,1-.472-.472v-.683a.472.472,0,0,1,.472-.472H5.3a.472.472,0,0,1,.472.472Zm4.457,6.214a3.627,3.627,0,1,1,3.627-3.627A3.631,3.631,0,0,1,10.226,20.712Z" transform="translate(-2.5 -9.7)" fill="#ebebeb"/></g></g></svg>