<svg xmlns="http://www.w3.org/2000/svg" width="19.773" height="16.8" viewBox="0 0 19.773 16.8"><path d="M38.119,40a3.129,3.129,0,1,0,3.119,3.14A3.132,3.132,0,0,0,38.119,40Z" transform="translate(-28.243 -33.7)" fill="#1598f6"/><path d="M19.82,12.257H16.764l-.936-1.871A1.257,1.257,0,0,0,14.705,9.7H10.048a1.257,1.257,0,0,0-1.123.686l-.936,1.871H4.933A2.418,2.418,0,0,0,2.5,14.669v9.4A2.436,2.436,0,0,0,4.933,26.5H19.841a2.436,2.436,0,0,0,2.433-2.433v-9.4A2.45,2.45,0,0,0,19.82,12.257ZM6.679,15.834a.6.6,0,0,1-.6.6H5.2a.6.6,0,0,1-.6-.6V14.96a.6.6,0,0,1,.6-.6h.873a.6.6,0,0,1,.6.6Zm5.7,7.943a4.637,4.637,0,1,1,4.637-4.637A4.641,4.641,0,0,1,12.376,23.776Z" transform="translate(-2.5 -9.7)" fill="#1598f6"/></svg>