<svg xmlns="http://www.w3.org/2000/svg" width="78.936" height="53.82" viewBox="0 0 78.936 53.82"><g transform="translate(-291 -521)"><rect width="78.936" height="53.82" transform="translate(291 521)" fill="none"/><g transform="translate(294.588 533.558)"><path d="M73.822,27.352a2.086,2.086,0,0,1-.431,1.272l-2.3,2.992a1.911,1.911,0,0,1-1.555.755l-1.265-.016A5.513,5.513,0,0,0,66.851,27c-.063-.065-.127-.126-.192-.185a5.6,5.6,0,0,0-1.561-1,5.541,5.541,0,0,0-4.3,0,5.587,5.587,0,0,0-1.561,1L59.045,27a5.49,5.49,0,0,0-1.616,3.9,5.3,5.3,0,0,0,.2,1.469l-1.532,0L22.485,32.1,20.1,32a5.45,5.45,0,0,0,.109-.988,5.519,5.519,0,1,0-11,.517,18.16,18.16,0,0,1-2.713-.574c-2.129-.506-2.284-.147-2.831-.615-.19-.163-.515-.5-1-2.345a23.915,23.915,0,0,1-.6-3.057.232.232,0,0,1,.02-.135l.569-1.13a2.648,2.648,0,0,0,.28-1.163l.056-4.838a2.717,2.717,0,0,1,.924-2.007l5.332-4.677a10.45,10.45,0,0,1,6.544-2.3H35.172a14.439,14.439,0,0,1,6.9,1.758l10.473,5.89a3.246,3.246,0,0,0,1.087.38l14.232,2.262a5.429,5.429,0,0,1,1.473.518,5.178,5.178,0,0,1,2.612,3.339l.1.386a1.018,1.018,0,0,1,.551.653,1.279,1.279,0,0,1,.721,1.182l-.018.468a1.287,1.287,0,0,0,.2.723A2.1,2.1,0,0,1,73.822,27.352Z" transform="translate(-2.061 -8.684)" fill="none" stroke="#000" stroke-miterlimit="10" stroke-width="0.8"/><path d="M48.975,15.348a.651.651,0,0,1,.07,1.089,14.7,14.7,0,0,1-1.616,1,1.489,1.489,0,0,1-.775.176L8.236,15.777a2.521,2.521,0,0,1-2.112-1.345l-.472-1.424a3.758,3.758,0,0,1,.287-2.485" transform="translate(0.721 -7.225)" fill="none" stroke="#000" stroke-miterlimit="10" stroke-width="0.8"/><path d="M17.062,23.509a5.518,5.518,0,1,1-5.518-5.518A5.531,5.531,0,0,1,17.062,23.509Z" transform="translate(1.086 -1.294)" fill="none" stroke="#000" stroke-miterlimit="10" stroke-width="0.8"/><path d="M43.962,23.513a5.517,5.517,0,0,1-10.836,1.469,5.3,5.3,0,0,1-.2-1.469,5.49,5.49,0,0,1,1.616-3.9l.192-.185c.129-.117.266-.228.409-.337a4.959,4.959,0,0,1,.671-.431c.156-.086.318-.161.481-.233a5.541,5.541,0,0,1,4.3,0c.163.072.325.147.481.233a4.959,4.959,0,0,1,.671.431c.144.109.28.221.409.337l.192.185A5.49,5.49,0,0,1,43.962,23.513Z" transform="translate(22.443 -1.294)" fill="none" stroke="#000" stroke-miterlimit="10" stroke-width="0.8"/></g></g></svg>