<svg xmlns="http://www.w3.org/2000/svg" width="81.286" height="55.422" viewBox="0 0 81.286 55.422"><g transform="translate(-994 -1091)"><rect width="81.286" height="55.422" transform="translate(994 1091)" fill="none"/><g transform="translate(997.695 1107.626)"><path d="M5.261,11.778" transform="translate(1.585 -6.117)" fill="none" stroke="#000" stroke-miterlimit="10" stroke-width="0.8"/><g transform="translate(0 0)"><path d="M42.508,20.5a5.676,5.676,0,0,1-.244,1.64h0a5.467,5.467,0,0,1-.394.955,5.982,5.982,0,0,1-10.536,0c-.078-.151-.15-.3-.212-.462A5.576,5.576,0,0,1,30.7,20.5a5.906,5.906,0,0,1,11.809,0Z" transform="translate(23.142 -3.594)" fill="none" stroke="#000" stroke-miterlimit="10" stroke-width="0.8"/><path d="M17.919,20.5a5.676,5.676,0,0,1-.244,1.64h0a5.2,5.2,0,0,1-.393.955,5.973,5.973,0,0,1-10.748-.462,5.343,5.343,0,0,1-.288-.937h0a5.659,5.659,0,0,1-.127-1.2,5.825,5.825,0,0,1,5.9-5.749A5.831,5.831,0,0,1,17.919,20.5Z" transform="translate(2.305 -3.594)" fill="none" stroke="#000" stroke-miterlimit="10" stroke-width="0.8"/><path d="M75.08,25.407a2.381,2.381,0,0,1-.285,1.707,1.212,1.212,0,0,1-1.031.571h-7.2a5.467,5.467,0,0,0,.394-.955h0a5.676,5.676,0,0,0,.244-1.64,5.906,5.906,0,0,0-11.809,0,5.576,5.576,0,0,0,.419,2.134c.063.157.135.31.212.462H21.137a5.2,5.2,0,0,0,.393-.955h0a5.676,5.676,0,0,0,.244-1.64,5.906,5.906,0,0,0-11.809,0,5.659,5.659,0,0,0,.127,1.2l-.318-.041H4.3a5.008,5.008,0,0,1-2.232-1.079,1.347,1.347,0,0,1-.51-1.064V21.212a3.3,3.3,0,0,1,.9-1.648,1.677,1.677,0,0,0,.462-1.232l-.124-3.344a1.112,1.112,0,0,1,.733-1.094c3.652-1.262,15.483-1.629,18.4-1.7a1.208,1.208,0,0,0,1-.58l1.1-1.822a.91.91,0,0,1,.728-.449,1.332,1.332,0,0,1,.857.262,1.234,1.234,0,0,0,.745.259h.48a.959.959,0,0,1,.678.281,1.573,1.573,0,0,1,.46,1.112v2.269a.134.134,0,0,0,.135.135H49.643c.314-.015.628-.03.944-.041,12.669-.43,22.5,3.937,23.909,5.075,1.437,1.169.988,3.325.358,4.764-.408.937-.227,1.317-.052,1.471A.862.862,0,0,1,75.08,25.407Z" transform="translate(-1.555 -8.18)" fill="none" stroke="#000" stroke-miterlimit="10" stroke-width="0.8"/><line x2="12.677" y2="5.461" transform="translate(35.863)" fill="none" stroke="#000" stroke-miterlimit="10" stroke-width="0.8"/><line x2="3.303" transform="translate(25.864 9.033)" fill="none" stroke="#000" stroke-miterlimit="10" stroke-width="0.8"/></g></g></g></svg>