<svg xmlns="http://www.w3.org/2000/svg" width="15.106" height="15.5" viewBox="0 0 15.106 15.5"><g transform="translate(-471.773 -30.368)"><g transform="matrix(0.035, -0.999, 0.999, 0.035, 471.662, 45.341)"><g transform="translate(3.184 0)"><path d="M5.9,11.8a5.9,5.9,0,1,1,5.9-5.9A5.9,5.9,0,0,1,5.9,11.8ZM5.9.758a5.125,5.125,0,1,0,5.125,5.125A5.13,5.13,0,0,0,5.9.758Z" transform="translate(0 0)" fill="#0e2236"/></g><g transform="translate(0.591 9.497)"><rect width="6.278" height="0.758" transform="translate(0 4.439) rotate(-45)" fill="#0e2236"/></g><g transform="translate(0 11.398)"><path d="M.185,2.443a.647.647,0,0,0,0,.906l.165.165a.647.647,0,0,0,.906,0L3.514,1.256a.647.647,0,0,0,0-.906L3.349.185a.647.647,0,0,0-.906,0Z" transform="translate(0 0)" fill="#0e2236"/></g></g></g></svg>