<svg xmlns="http://www.w3.org/2000/svg" width="25.09" height="29.134" viewBox="0 0 25.09 29.134"><g transform="translate(-38.382 -469.657) rotate(79)"><g transform="matrix(0.035, -0.999, 0.999, 0.035, 471.662, 55.648)"><g transform="translate(5.376)"><path d="M9.96,19.919a9.96,9.96,0,1,1,9.96-9.96A9.967,9.967,0,0,1,9.96,19.919Zm0-18.64a8.652,8.652,0,1,0,8.652,8.652A8.661,8.661,0,0,0,9.96,1.28Z" fill="#454343"/></g><g transform="translate(0.998 16.034)"><rect width="10.6" height="1.28" transform="translate(0 7.495) rotate(-45)" fill="#454343"/></g><g transform="translate(0 19.245)"><path d="M.313,4.124a1.092,1.092,0,0,0,0,1.53l.278.278a1.092,1.092,0,0,0,1.53,0L5.933,2.121a1.092,1.092,0,0,0,0-1.53L5.654.313a1.092,1.092,0,0,0-1.53,0Z" fill="#454343"/></g></g></g></svg>