<svg xmlns="http://www.w3.org/2000/svg" width="24.842" height="24.842" viewBox="0 0 24.842 24.842"><g transform="translate(-219.684 -389.684)"><g transform="translate(219.684 389.684)"><path d="M18.421,6A12.421,12.421,0,1,0,30.842,18.421,12.421,12.421,0,0,0,18.421,6Zm8.245,8.674-2.223,1.64L14.525,23.63a.293.293,0,0,1-.173.054.289.289,0,0,1-.221-.1l-4-4.5a.294.294,0,0,1,.03-.416l.96-.844a.3.3,0,0,1,.1-.031l.1-.109,3.241,3.647,11.018-8.125a.274.274,0,0,1,.164-.052.31.31,0,0,1,.25.117l.73.987a.3.3,0,0,1,.053.23A.282.282,0,0,1,26.666,14.674Z" transform="translate(-6 -6)" fill="#09f"/></g></g></svg>