<svg xmlns="http://www.w3.org/2000/svg" xmlns:xlink="http://www.w3.org/1999/xlink" width="40.872" height="40.555" viewBox="0 0 40.872 40.555"><defs><filter id="a" x="0" y="0" width="40.872" height="40.555" filterUnits="userSpaceOnUse"><feOffset dy="3" input="SourceAlpha"/><feGaussianBlur stdDeviation="3" result="b"/><feFlood flood-opacity="0.161"/><feComposite operator="in" in2="b"/><feComposite in="SourceGraphic"/></filter></defs><g transform="matrix(1, 0, 0, 1, 0, 0)" filter="url(#a)"><path d="M26.041,25.467a3.846,3.846,0,0,0-2.875,1.266l-8.231-4.01a3.825,3.825,0,0,0,0-1.266L23.166,17.4a3.92,3.92,0,1,0-1.055-2.664,5.123,5.123,0,0,0,.053.633L13.906,19.4a3.934,3.934,0,1,0-2.875,6.621,3.846,3.846,0,0,0,2.875-1.266l8.231,4.036a5.123,5.123,0,0,0-.053.633,3.931,3.931,0,1,0,3.957-3.957Z" transform="translate(1.9 -4.8)" fill="#fff"/></g></svg>