<svg xmlns="http://www.w3.org/2000/svg" xmlns:xlink="http://www.w3.org/1999/xlink" width="83" height="62.644" viewBox="0 0 83 62.644"><defs><filter id="a" x="0" y="0" width="83" height="62.644" filterUnits="userSpaceOnUse"><feOffset dy="3" input="SourceAlpha"/><feGaussianBlur stdDeviation="3" result="b"/><feFlood flood-opacity="0.161"/><feComposite operator="in" in2="b"/><feComposite in="SourceGraphic"/></filter><filter id="c" x="21.667" y="11.733" width="39.667" height="39.522" filterUnits="userSpaceOnUse"><feOffset dy="3" input="SourceAlpha"/><feGaussianBlur stdDeviation="3" result="d"/><feFlood flood-opacity="0.161"/><feComposite operator="in" in2="d"/><feComposite in="SourceGraphic"/></filter></defs><g transform="translate(9 6)"><g transform="matrix(1, 0, 0, 1, -9, -6)" filter="url(#a)"><path d="M69.639,35.943c-14.806-27.89-49.472-27.89-64.35,0A3.829,3.829,0,0,0,5,37.538a2.382,2.382,0,0,0,.289,1.213c14.878,27.89,49.544,27.89,64.35,0a4.934,4.934,0,0,0,.361-1.4A3.18,3.18,0,0,0,69.639,35.943ZM37.5,52.983c-9.967,0-18.056-7.148-18.056-15.956S27.533,21.072,37.5,21.072,55.556,28.22,55.556,37.028,47.467,52.983,37.5,52.983Z" transform="translate(4 -9.02)" fill="#f2f2f2"/></g><g transform="matrix(1, 0, 0, 1, -9, -6)" filter="url(#c)"><path d="M45.833,35.4A10.761,10.761,0,1,0,56.667,46.161,10.8,10.8,0,0,0,45.833,35.4Z" transform="translate(-4.33 -17.67)" fill="#f2f2f2"/></g></g></svg>