<svg xmlns="http://www.w3.org/2000/svg" width="74.951" height="31.675" viewBox="0 0 74.951 31.675"><g transform="translate(-1.041 -6.472)"><path d="M71.585,32.03H68.764a6.928,6.928,0,0,0,.067-.948,6.638,6.638,0,1,0-13.276,0,6.927,6.927,0,0,0,.067.948H21.35a6.929,6.929,0,0,0,.065-.948,6.637,6.637,0,1,0-13.274,0,6.929,6.929,0,0,0,.065.948H4.822s-1.03-.009-1.139-.037c-.7-.161-3.015-.972-1.973-4.429a5.58,5.58,0,0,0,.267-1.656V16.976a4.381,4.381,0,0,1,.971-2.739l4.44-5.458a2.517,2.517,0,0,1,1.948-.93,126.518,126.518,0,0,1,30.848-.009,1.365,1.365,0,0,0,.152.009,7.462,7.462,0,0,1,4.4,1.508l8.909,6.777a4.389,4.389,0,0,0,2.152.861l12.584,1.467a7.467,7.467,0,0,1,6.61,7.42v.359a1.843,1.843,0,0,0,.274.911C75.848,28.157,75.8,32.03,71.585,32.03Z" transform="translate(0 0.027)" fill="none" stroke="#000" stroke-miterlimit="10" stroke-width="0.8"/><path d="M18.334,23.01a6.929,6.929,0,0,1-.065.948,6.641,6.641,0,0,1-13.145,0,6.929,6.929,0,0,1-.065-.948,6.637,6.637,0,1,1,13.274,0Z" transform="translate(3.081 8.099)" fill="none" stroke="#000" stroke-miterlimit="10" stroke-width="0.8"/><path d="M43.935,23.01a6.928,6.928,0,0,1-.067.948,6.64,6.64,0,0,1-13.143,0,6.927,6.927,0,0,1-.067-.948,6.638,6.638,0,1,1,13.276,0Z" transform="translate(24.895 8.099)" fill="none" stroke="#000" stroke-miterlimit="10" stroke-width="0.8"/><path d="M30.418,12.276" transform="translate(24.69 4.608)" fill="none" stroke="#000" stroke-miterlimit="10" stroke-width="0.8"/><path d="M5.261,11.778" transform="translate(3.252 4.184)" fill="none" stroke="#000" stroke-miterlimit="10" stroke-width="0.8"/><path d="M15.893,6.868" transform="translate(12.312)" fill="none" stroke="#000" stroke-miterlimit="10" stroke-width="0.8"/><path d="M42.2,16.817,23.12,16.374A2.3,2.3,0,0,1,21.17,15.2L16.562,6.947" transform="translate(12.882 0.067)" fill="none" stroke="#000" stroke-miterlimit="10" stroke-width="0.8"/><path d="M22.731,6.868c.283.043,2.8,5.2,4.19,8.1A1.247,1.247,0,0,1,25.88,16.8L6.325,15.986a2.3,2.3,0,0,1-1.85-1.132L3.028,12.508" transform="translate(1.349 0)" fill="none" stroke="#000" stroke-miterlimit="10" stroke-width="0.8"/></g></svg>