<svg xmlns="http://www.w3.org/2000/svg" width="66.394" height="29.74" viewBox="0 0 66.394 29.74"><g transform="translate(-38.51 -527.49)"><g transform="translate(39 528)"><g transform="translate(0 0)"><path d="M46.626,14.068C45.38,15.1,40.275,15.283,38.1,15.314c-.586.008-1.154,0-1.738-.043-3.734-.242-20.309-1.308-24.01-1.49-2.5-.121-4.315-4.4-4.831-5.762" transform="translate(0.99 -6.515)" fill="none" stroke="#000" stroke-miterlimit="10" stroke-width="0.8"/><path d="M67.738,29.849C67.2,31.463,62.283,32,62.283,32H59.745l-.157-.008a5.077,5.077,0,0,0,.149-1.229,5.169,5.169,0,1,0-10.337.057c0,.164.01.324.026.485l-33.1-1.149-.29-.013v0a5.168,5.168,0,0,0-10.118-1.2.923.923,0,0,1-.879.678H3.791a.921.921,0,0,1-.861-.6C.5,22.495,6.061,13.372,7.034,11.853a.908.908,0,0,0,.142-.489V9.878a.913.913,0,0,1,.933-.912l2.526.056C21.011,6.55,30.369,6.88,35,7.715c4.88.882,15.524,7.456,15.524,7.456,1.183,1.035,9.054,2.639,9.648,2.76a.628.628,0,0,1,.075.018C68.964,20.349,67.738,29.849,67.738,29.849Z" transform="translate(-2.321 -7.1)" fill="none" stroke="#000" stroke-miterlimit="10" stroke-width="0.8"/></g><path d="M14.724,23.349a5.2,5.2,0,1,1-.008-.265v0C14.721,23.174,14.724,23.259,14.724,23.349Z" transform="translate(-1.005 -0.043)" fill="none" stroke="#000" stroke-miterlimit="10" stroke-width="0.8"/><path d="M41.419,23.569A5.077,5.077,0,0,1,41.27,24.8a5.17,5.17,0,0,1-10.162-.687,5.411,5.411,0,0,1-.026-.542,5.169,5.169,0,1,1,10.337,0Z" transform="translate(15.997 0.095)" fill="none" stroke="#000" stroke-miterlimit="10" stroke-width="0.8"/><path d="M22.74,7.528" transform="translate(10.684 -6.828)" fill="none" stroke="#000" stroke-miterlimit="10" stroke-width="0.8"/></g></g></svg>