<svg xmlns="http://www.w3.org/2000/svg" width="81.72" height="55.718" viewBox="0 0 81.72 55.718"><rect width="81.72" height="55.718" transform="translate(0 0)" fill="none"/><g transform="translate(3.715 14.858)"><g transform="translate(9.645 6.361)"><path d="M8.206,10.739l1.341,2.086a.731.731,0,0,0,.615.334H35.387l24.7.618" transform="translate(-8.206 -10.739)" fill="none" stroke="#000" stroke-miterlimit="10" stroke-width="0.8"/></g><g transform="translate(55.063 4.704)"><path d="M32.66,9.847" transform="translate(-32.66 -9.847)" fill="none" stroke="#000" stroke-miterlimit="10" stroke-width="0.8"/></g><g transform="translate(36.89 0)"><path d="M22.875,7.314" transform="translate(-22.875 -7.314)" fill="none" stroke="#000" stroke-miterlimit="10" stroke-width="0.8"/></g><path d="M33.143,23.046l.009.045a5.855,5.855,0,0,0,11.38,0l.011-.048a5.8,5.8,0,0,0,.158-1.339,5.872,5.872,0,0,0-1.958-4.372c-.154-.136-.312-.262-.475-.381L42.19,16.9c-.136-.095-.271-.184-.412-.266-.045-.026-.093-.05-.139-.076-.123-.067-.249-.132-.377-.189-.054-.026-.11-.048-.163-.072-.126-.052-.254-.1-.383-.143-.056-.019-.111-.039-.167-.056-.139-.041-.28-.076-.422-.108-.046-.011-.093-.024-.141-.033a5.912,5.912,0,0,0-1.178-.11c-.1,0-.206.011-.31.017s-.227.009-.34.022a5.854,5.854,0,0,0-5.015,7.16Z" transform="translate(22.682 0.001)" fill="none" stroke="#000" stroke-miterlimit="10" stroke-width="0.8"/><path d="M8.336,23l.007.039a5.857,5.857,0,0,0,11.394.046l.011-.043a5.856,5.856,0,0,0-4.651-7.1l-.02,0c-.18-.032-.362-.056-.546-.071l-.087,0c-.171-.011-.345-.019-.52-.017A5.858,5.858,0,0,0,8.336,23Z" transform="translate(1.426 0.001)" fill="none" stroke="#000" stroke-miterlimit="10" stroke-width="0.8"/><path d="M18.538,10.667l-5.466,3.048a2.189,2.189,0,0,1-.542.212L5.153,15.691A1.73,1.73,0,0,0,3.83,17.236L3.019,27.293h0a1.728,1.728,0,0,0,1.514,1.861l7.8.964c-.009-.048-.013-.1-.022-.145L12.3,29.9c-.019-.128-.033-.256-.045-.386l0-.052a5.977,5.977,0,0,1,0-.893,6.3,6.3,0,0,1,6.11-5.823,6.529,6.529,0,0,1,1.254.1,6.2,6.2,0,0,1,1.568.511,6.283,6.283,0,0,1,1.688,1.178,6.214,6.214,0,0,1,1.88,4.47,6.067,6.067,0,0,1-.043.687c0,.043-.013.084-.019.126-.017.124-.03.249-.054.371H58.4c-.009-.048-.015-.1-.024-.145l-.015-.1c-.019-.111-.032-.225-.043-.336L58.3,29.52c-.009-.115-.015-.232-.019-.347l0-.087c0-.121,0-.24.007-.36l0-.072c.007-.128.02-.256.035-.384l.006-.048a6.428,6.428,0,0,1,.3-1.3,6.255,6.255,0,0,1,5.169-4.127,6.337,6.337,0,0,1,1.339-.013,6.045,6.045,0,0,1,1.341.282,6.268,6.268,0,0,1,4.307,5.949,6.008,6.008,0,0,1-.043.685c0,.045-.013.089-.019.134-.017.123-.03.245-.054.366h6.5a.127.127,0,0,0,.1-.046A.172.172,0,0,0,77.3,30l-.2-6.824c-.227-2.693-3.471-4.511-6.185-5.249-.026-.007-.054-.011-.082-.017a1.031,1.031,0,0,1-.154-.033,49.887,49.887,0,0,0-8.805-1.436,1.157,1.157,0,0,1-.3-.043,7.591,7.591,0,0,1-.691-.422A64.055,64.055,0,0,0,42.9,7.836a1.823,1.823,0,0,0-.247-.052c-1.562-.2-3.185-.34-4.823-.4-.3-.011-.615-.019-.925-.028v8.753H36.5V7.346h.115q-.811-.02-1.627-.017a79.74,79.74,0,0,0-10.815.8,10.388,10.388,0,0,0-1.113.215,4.544,4.544,0,0,0-1.122.429l-2.992,1.668Z" transform="translate(-3.013 -7.301)" fill="none" stroke="#000" stroke-miterlimit="10" stroke-width="0.8"/></g></svg>