<svg xmlns="http://www.w3.org/2000/svg" width="111.348" height="30.903" viewBox="0 0 111.348 30.903"><defs><style>.a{fill:#f5f6f8;}.b{fill:#ff1a1f;}</style></defs><g transform="translate(-199.1 -553.1)"><g transform="translate(200.021 567.598)"><rect class="a" width="8.449" height="1.907" transform="translate(0 0)"/><rect class="a" width="8.449" height="1.907" transform="translate(12.591 0)"/><rect class="a" width="8.449" height="1.907" transform="translate(88.072 0)"/><rect class="a" width="8.449" height="1.907" transform="translate(100.663 0)"/></g><g transform="translate(199.1 553.1)"><rect class="a" width="111.348" height="1.907"/><rect class="a" width="111.348" height="1.907" transform="translate(0 28.996)"/></g><path class="a" d="M284.669,584.953H284.6a4.44,4.44,0,0,1-3.616,1.611,5.639,5.639,0,0,1-5.687-5.786,5.9,5.9,0,0,1,5.819-5.786A4.132,4.132,0,0,1,284.6,576.6h.066V572H287v14.268h-2.334v-1.315Zm-3.353-.592a3.553,3.553,0,0,0,0-7.1,3.551,3.551,0,0,0,0,7.1Z" transform="translate(-51.149 -12.687)"/><path class="a" d="M317,581.463h2.2v1.216h.066a2.423,2.423,0,0,1,3.452-1.151l-.855,2.334a1.9,1.9,0,0,0-.888-.3,1.6,1.6,0,0,0-1.611,1.644v7.265H317Z" transform="translate(-79.14 -18.862)"/><path class="a" d="M336.615,571.2a1.315,1.315,0,1,1,0,2.63,1.3,1.3,0,0,1-1.315-1.315A1.319,1.319,0,0,1,336.615,571.2Zm-1.184,3.55h2.334v10.98h-2.334Z" transform="translate(-91.424 -12.15)"/><path class="a" d="M344.3,582h2.63l2.433,6.279h.066L351.861,582h2.63l-5.1,11.276Z" transform="translate(-97.465 -19.399)"/><path class="a" d="M385.745,590.009a6.583,6.583,0,0,1-5.1,2.663,5.792,5.792,0,1,1,0-11.572,5.881,5.881,0,0,1,5.687,6.148v.427H377.23a3.292,3.292,0,0,0,3.353,2.86,3.839,3.839,0,0,0,3.156-1.71Zm-2.17-4.241a3.3,3.3,0,0,0-3.255-2.564,3.061,3.061,0,0,0-3.09,2.564Z" transform="translate(-117.804 -18.795)"/><path class="b" d="M410.371,574.751h2.334v11.079c0,1.94-.953,3.255-3.452,4.372l-.953-1.874c1.611-.855,2.071-1.381,2.071-2.663Zm1.184-3.55a1.315,1.315,0,1,1,0,2.63,1.315,1.315,0,1,1,0-2.63Z" transform="translate(-140.425 -12.15)"/><path class="b" d="M431.349,581.2a5.792,5.792,0,1,1-6.049,5.786A5.773,5.773,0,0,1,431.349,581.2Zm0,9.336a3.55,3.55,0,1,0-3.551-3.55A3.5,3.5,0,0,0,431.349,590.536Z" transform="translate(-151.837 -18.862)"/></g></svg>